<svg width="45" height="36" viewBox="0 0 45 36" fill="none" xmlns="http://www.w3.org/2000/svg">
<g clip-path="url(#clip0_190_346)">
<path fill-rule="evenodd" clip-rule="evenodd" d="M9.34664 0.00439453C6.779 0.00439453 4.87907 2.26078 4.96415 4.70778C5.0458 7.05868 4.93972 10.1034 4.1763 12.5864C3.41016 15.0764 2.11535 16.6543 0 16.8568V19.1434C2.11535 19.3463 3.41016 20.9234 4.17621 23.4137C4.93972 25.8967 5.04571 28.9415 4.96406 31.2924C4.87898 33.739 6.77892 35.9958 9.34699 35.9958H35.6568C38.2244 35.9958 40.124 33.7394 40.0389 31.2924C39.9573 28.9415 40.0634 25.8967 40.8268 23.4137C41.5929 20.9234 42.8846 19.3457 45 19.1434V16.8568C42.8846 16.6538 41.593 15.0768 40.8268 12.5864C40.0633 10.1038 39.9573 7.05868 40.0389 4.70778C40.124 2.26114 38.2244 0.00439453 35.6568 0.00439453H9.34629H9.34664ZM30.5085 22.1595C30.5085 25.5289 28.0053 27.5723 23.8511 27.5723H16.7796C16.5774 27.5723 16.3834 27.4916 16.2403 27.348C16.0973 27.2044 16.0169 27.0096 16.0169 26.8065V9.19373C16.0169 8.99063 16.0973 8.79585 16.2403 8.65224C16.3834 8.50863 16.5774 8.42795 16.7796 8.42795H23.8109C27.2747 8.42795 29.548 10.3118 29.548 13.204C29.548 15.2341 28.0187 17.0515 26.0705 17.3699V17.4757C28.7227 17.7678 30.5085 19.6121 30.5085 22.1595V22.1595ZM23.0801 10.8554H19.048V16.5736H22.444C25.0693 16.5736 26.5169 15.5122 26.5169 13.6151C26.5166 11.8372 25.2721 10.8554 23.0801 10.8554ZM19.048 18.8425V25.144H23.2284C25.9618 25.144 27.4097 24.0428 27.4097 21.9733C27.4097 19.9039 25.9212 18.8421 23.0527 18.8421H19.048V18.8425Z" fill="#7952B3"/>
</g>
<defs>
<clipPath id="clip0_190_346">
<rect width="45" height="36" fill="white"/>
</clipPath>
</defs>
</svg>
