<svg width="30" height="45" viewBox="0 0 30 45" fill="none" xmlns="http://www.w3.org/2000/svg">
<g clip-path="url(#clip0_173_309)">
<path d="M7.50143 45C11.6406 45 14.9999 41.64 14.9999 37.5V30H7.50143C3.36226 30 0.00292969 33.36 0.00292969 37.5C0.00292969 41.64 3.36226 45 7.50143 45Z" fill="#0ACF83"/>
<path d="M0.00292969 22.5C0.00292969 18.36 3.36226 15 7.50143 15H14.9999V30H7.50143C3.36226 30 0.00292969 26.64 0.00292969 22.5Z" fill="#A259FF"/>
<path d="M0.00292969 7.5C0.00292969 3.36 3.36226 0 7.50143 0H14.9999V15H7.50143C3.36226 15 0.00292969 11.64 0.00292969 7.5Z" fill="#F24E1E"/>
<path d="M15 0H22.4985C26.6377 0 29.997 3.36 29.997 7.5C29.997 11.64 26.6377 15 22.4985 15H15V0Z" fill="#FF7262"/>
<path d="M29.997 22.5C29.997 26.64 26.6377 30 22.4985 30C18.3593 30 15 26.64 15 22.5C15 18.36 18.3593 15 22.4985 15C26.6377 15 29.997 18.36 29.997 22.5Z" fill="#1ABCFE"/>
</g>
<defs>
<clipPath id="clip0_173_309">
<rect width="30" height="45" fill="white"/>
</clipPath>
</defs>
</svg>
