<svg width="46" height="45" viewBox="0 0 46 45" fill="none" xmlns="http://www.w3.org/2000/svg">
<g clip-path="url(#clip0_173_305)">
<path d="M22.9111 0C10.2593 0 0 10.315 0 23.0397C0 33.2194 6.5647 41.8556 15.668 44.9021C16.813 45.1153 17.2335 44.4023 17.2335 43.7937C17.2335 43.2444 17.2121 41.4293 17.2024 39.5042C10.8283 40.8979 9.48337 36.7858 9.48337 36.7858C8.44118 34.1227 6.93953 33.4147 6.93953 33.4147C4.86091 31.9847 7.09622 32.0139 7.09622 32.0139C9.39694 32.1766 10.6084 34.3883 10.6084 34.3883C12.6518 37.9106 15.9681 36.8922 17.2755 36.3037C17.4811 34.8144 18.0749 33.7981 18.7301 33.2228C13.6413 32.6401 8.29168 30.6645 8.29168 21.8364C8.29168 19.3211 9.1867 17.2657 10.6524 15.6523C10.4145 15.0719 9.63035 12.7286 10.8743 9.55503C10.8743 9.55503 12.7982 8.93579 17.1765 11.9167C19.0039 11.4061 20.964 11.1502 22.9111 11.1415C24.8581 11.1502 26.8196 11.4061 28.6506 11.9167C33.0237 8.93579 34.9449 9.55503 34.9449 9.55503C36.1919 12.7286 35.4074 15.0719 35.1695 15.6523C36.6385 17.2657 37.5274 19.3209 37.5274 21.8364C37.5274 30.6855 32.1677 32.6341 27.066 33.2044C27.8877 33.9194 28.6199 35.3216 28.6199 37.471C28.6199 40.5536 28.5933 43.0348 28.5933 43.7937C28.5933 44.4068 29.0057 45.1253 30.1672 44.899C39.2655 41.8491 45.8219 33.2159 45.8219 23.0397C45.8219 10.315 35.5641 0 22.9111 0Z" fill="white"/>
<path d="M8.58093 32.8206C8.53062 32.935 8.35129 32.9693 8.18831 32.8909C8.0221 32.8157 7.92866 32.6596 7.98257 32.5447C8.03198 32.4269 8.21131 32.394 8.37716 32.4731C8.54373 32.5481 8.63861 32.7057 8.58093 32.8206M9.70793 33.8318C9.59868 33.9337 9.38503 33.8864 9.24002 33.7254C9.09016 33.5647 9.06213 33.3501 9.173 33.2465C9.28566 33.1448 9.49284 33.1923 9.64306 33.3531C9.79292 33.5156 9.82203 33.729 9.70775 33.832M10.4811 35.1256C10.3406 35.2237 10.111 35.1317 9.96919 34.9268C9.82886 34.7221 9.82886 34.4763 9.97225 34.3779C10.1146 34.2794 10.3406 34.3679 10.4844 34.5712C10.6245 34.7796 10.6245 35.0253 10.4809 35.1258M11.7885 36.6241C11.6629 36.7632 11.3956 36.726 11.1997 36.5359C10.9995 36.3502 10.9436 36.0865 11.0696 35.9472C11.1966 35.8077 11.4656 35.8469 11.6629 36.0354C11.8618 36.2208 11.9226 36.4864 11.7887 36.6241M13.4783 37.13C13.4231 37.3104 13.1655 37.3924 12.906 37.3158C12.6469 37.2368 12.4773 37.0254 12.5296 36.8431C12.5835 36.6615 12.8422 36.576 13.1037 36.6581C13.3624 36.7367 13.5324 36.9465 13.4785 37.13M15.4017 37.3445C15.4082 37.5346 15.188 37.6922 14.9156 37.6956C14.6416 37.7016 14.4201 37.5478 14.4172 37.361C14.4172 37.1691 14.6323 37.013 14.9061 37.0084C15.1785 37.003 15.4017 37.1557 15.4017 37.3445M17.2909 37.2717C17.3236 37.4571 17.1342 37.6476 16.8638 37.6982C16.5979 37.7469 16.3517 37.6326 16.3177 37.4488C16.2847 37.2587 16.4777 37.0684 16.7431 37.0191C17.014 36.9718 17.2564 37.0832 17.2909 37.2717" fill="white"/>
</g>
<defs>
<clipPath id="clip0_173_305">
<rect width="46" height="45" fill="white"/>
</clipPath>
</defs>
</svg>
